<svg xmlns="http://www.w3.org/2000/svg" viewBox="0 0 336 168" width="336" height="168">
<title>construction-sheet</title>
<rect x="0" y="0" width="336" height="168" fill="#0A0B0D"/>
<polyline points="16,20 16,148" fill="none" stroke="#1A2228" stroke-width="1"/>
<polyline points="32,20 32,148" fill="none" stroke="#1A2228" stroke-width="1"/>
<polyline points="48,20 48,148" fill="none" stroke="#1A2228" stroke-width="1"/>
<polyline points="64,20 64,148" fill="none" stroke="#1A2228" stroke-width="1"/>
<polyline points="80,20 80,148" fill="none" stroke="#1A2228" stroke-width="1"/>
<polyline points="96,20 96,148" fill="none" stroke="#1A2228" stroke-width="1"/>
<polyline points="112,20 112,148" fill="none" stroke="#1A2228" stroke-width="1"/>
<polyline points="128,20 128,148" fill="none" stroke="#1A2228" stroke-width="1"/>
<polyline points="144,20 144,148" fill="none" stroke="#1A2228" stroke-width="1"/>
<polyline points="16,20 144,20" fill="none" stroke="#1A2228" stroke-width="1"/>
<polyline points="16,36 144,36" fill="none" stroke="#1A2228" stroke-width="1"/>
<polyline points="16,52 144,52" fill="none" stroke="#1A2228" stroke-width="1"/>
<polyline points="16,68 144,68" fill="none" stroke="#1A2228" stroke-width="1"/>
<polyline points="16,84 144,84" fill="none" stroke="#1A2228" stroke-width="1"/>
<polyline points="16,100 144,100" fill="none" stroke="#1A2228" stroke-width="1"/>
<polyline points="16,116 144,116" fill="none" stroke="#1A2228" stroke-width="1"/>
<polyline points="16,132 144,132" fill="none" stroke="#1A2228" stroke-width="1"/>
<polyline points="16,148 144,148" fill="none" stroke="#1A2228" stroke-width="1"/>
<rect x="16" y="20" width="128" height="128" fill="none" stroke="#1A2228" stroke-width="1"/>
<rect x="32" y="108" width="16" height="16" fill="#3DD6F5"/>
<rect x="56" y="92" width="16" height="32" fill="#3DD6F5"/>
<rect x="80" y="76" width="16" height="48" fill="#3DD6F5"/>
<rect x="32" y="124" width="96" height="4" fill="#3DD6F5"/>
<rect x="120" y="108" width="8" height="16" fill="#3DD6F5"/>
<polyline points="32,56 48,36 64,56 80,36 96,56 112,36 128,56" fill="none" stroke="#3DD6F5" stroke-width="2"/>
<polyline points="19.75,4.25 16.25,4.25 16.25,11.75 19.75,11.75 19.75,7.75 16.25,7.75" fill="none" stroke="#6B7280" stroke-width="1"/>
<polyline points="21.25,4.25 21.25,8 24.75,8" fill="none" stroke="#6B7280" stroke-width="1"/>
<polyline points="24,4.25 24,11.75" fill="none" stroke="#6B7280" stroke-width="1"/>
<polyline points="30.25,11.75 32,4.25 33.75,11.75" fill="none" stroke="#6B7280" stroke-width="1"/>
<polyline points="30.95,8.75 33.05,8.75" fill="none" stroke="#6B7280" stroke-width="1"/>
<polyline points="35.25,11.75 35.25,4.25 38.75,4.25 38.75,7.75 35.25,7.75" fill="none" stroke="#6B7280" stroke-width="1"/>
<polyline points="36.9,7.75 38.75,11.75" fill="none" stroke="#6B7280" stroke-width="1"/>
<polyline points="40.25,4.25 43.75,4.25" fill="none" stroke="#6B7280" stroke-width="1"/>
<polyline points="42,4.25 42,11.75" fill="none" stroke="#6B7280" stroke-width="1"/>
<polyline points="45.25,4.25 48.25,4.25 48.75,4.75 48.75,7.25 48.25,7.75 45.25,7.75" fill="none" stroke="#6B7280" stroke-width="1"/>
<polyline points="48.25,7.75 48.75,8.25 48.75,11.25 48.25,11.75 45.25,11.75 45.25,4.25" fill="none" stroke="#6B7280" stroke-width="1"/>
<polyline points="45.25,7.75 48.25,7.75" fill="none" stroke="#6B7280" stroke-width="1"/>
<polyline points="50.25,4.25 53.75,4.25 53.75,11.75 50.25,11.75 50.25,4.25" fill="none" stroke="#6B7280" stroke-width="1"/>
<polyline points="55.25,11.75 57,4.25 58.75,11.75" fill="none" stroke="#6B7280" stroke-width="1"/>
<polyline points="55.95,8.75 58.05,8.75" fill="none" stroke="#6B7280" stroke-width="1"/>
<polyline points="60.25,11.75 60.25,4.25 63.75,4.25 63.75,7.75 60.25,7.75" fill="none" stroke="#6B7280" stroke-width="1"/>
<polyline points="61.9,7.75 63.75,11.75" fill="none" stroke="#6B7280" stroke-width="1"/>
<polyline points="65.25,11.75 65.25,4.25 67.25,4.25 68.75,5.75 68.75,10.25 67.25,11.75 65.25,11.75" fill="none" stroke="#6B7280" stroke-width="1"/>
<polyline points="203.75,4.25 200.25,4.25 200.25,11.75 203.75,11.75 203.75,8.25 202,8.25" fill="none" stroke="#6B7280" stroke-width="1"/>
<polyline points="205.25,11.75 205.25,4.25 208.75,4.25 208.75,7.75 205.25,7.75" fill="none" stroke="#6B7280" stroke-width="1"/>
<polyline points="206.9,7.75 208.75,11.75" fill="none" stroke="#6B7280" stroke-width="1"/>
<polyline points="210.25,4.25 213.75,4.25" fill="none" stroke="#6B7280" stroke-width="1"/>
<polyline points="212,4.25 212,11.75" fill="none" stroke="#6B7280" stroke-width="1"/>
<polyline points="210.25,11.75 213.75,11.75" fill="none" stroke="#6B7280" stroke-width="1"/>
<polyline points="215.25,11.75 215.25,4.25 217.25,4.25 218.75,5.75 218.75,10.25 217.25,11.75 215.25,11.75" fill="none" stroke="#6B7280" stroke-width="1"/>
<polyline points="224.25,4.25 227.75,4.25 227.75,11.75 224.25,11.75 224.25,4.25" fill="none" stroke="#6B7280" stroke-width="1"/>
<polyline points="224.25,7.75 227.75,7.75" fill="none" stroke="#6B7280" stroke-width="1"/>
<polyline points="229.25,4.25 229.25,11.75 232.75,11.75 232.75,4.25" fill="none" stroke="#6B7280" stroke-width="1"/>
<polyline points="200.25,43.75 200.25,36.25 202,40.25 203.75,36.25 203.75,43.75" fill="none" stroke="#6B7280" stroke-width="1"/>
<polyline points="205.25,36.25 208.75,36.25 208.75,43.75 205.25,43.75 205.25,36.25" fill="none" stroke="#6B7280" stroke-width="1"/>
<polyline points="210.25,36.25 213.75,36.25" fill="none" stroke="#6B7280" stroke-width="1"/>
<polyline points="212,36.25 212,43.75" fill="none" stroke="#6B7280" stroke-width="1"/>
<polyline points="215.25,36.25 218.75,36.25" fill="none" stroke="#6B7280" stroke-width="1"/>
<polyline points="217,36.25 217,43.75" fill="none" stroke="#6B7280" stroke-width="1"/>
<polyline points="215.25,43.75 218.75,43.75" fill="none" stroke="#6B7280" stroke-width="1"/>
<polyline points="223.75,36.25 220.25,36.25 220.25,43.75" fill="none" stroke="#6B7280" stroke-width="1"/>
<polyline points="220.25,40 223.25,40" fill="none" stroke="#6B7280" stroke-width="1"/>
<polyline points="229.25,36.25 232.75,36.25 229.25,43.75 232.75,43.75" fill="none" stroke="#6B7280" stroke-width="1"/>
<polyline points="234.25,36.25 237.75,36.25 237.75,43.75 234.25,43.75 234.25,36.25" fill="none" stroke="#6B7280" stroke-width="1"/>
<polyline points="239.25,43.75 239.25,36.25 242.75,43.75 242.75,36.25" fill="none" stroke="#6B7280" stroke-width="1"/>
<polyline points="247.75,36.25 244.25,36.25 244.25,43.75 247.75,43.75" fill="none" stroke="#6B7280" stroke-width="1"/>
<polyline points="244.25,40 247.25,40" fill="none" stroke="#6B7280" stroke-width="1"/>
<polyline points="203.75,60.25 200.25,60.25 200.25,63.75 203.75,63.75 203.75,67.75 200.25,67.75" fill="none" stroke="#6B7280" stroke-width="1"/>
<polyline points="205.25,60.25 208.75,60.25" fill="none" stroke="#6B7280" stroke-width="1"/>
<polyline points="207,60.25 207,67.75" fill="none" stroke="#6B7280" stroke-width="1"/>
<polyline points="205.25,67.75 208.75,67.75" fill="none" stroke="#6B7280" stroke-width="1"/>
<polyline points="213.75,60.25 210.25,60.25 210.25,67.75 213.75,67.75 213.75,64.25 212,64.25" fill="none" stroke="#6B7280" stroke-width="1"/>
<polyline points="215.25,67.75 215.25,60.25 218.75,67.75 218.75,60.25" fill="none" stroke="#6B7280" stroke-width="1"/>
<polyline points="220.25,67.75 222,60.25 223.75,67.75" fill="none" stroke="#6B7280" stroke-width="1"/>
<polyline points="220.95,64.75 223.05,64.75" fill="none" stroke="#6B7280" stroke-width="1"/>
<polyline points="225.25,60.25 225.25,67.75 228.75,67.75" fill="none" stroke="#6B7280" stroke-width="1"/>
<polyline points="234.25,60.25 237.25,60.25 237.75,60.75 237.75,63.25 237.25,63.75 234.25,63.75" fill="none" stroke="#6B7280" stroke-width="1"/>
<polyline points="237.25,63.75 237.75,64.25 237.75,67.25 237.25,67.75 234.25,67.75 234.25,60.25" fill="none" stroke="#6B7280" stroke-width="1"/>
<polyline points="234.25,63.75 237.25,63.75" fill="none" stroke="#6B7280" stroke-width="1"/>
<polyline points="239.25,67.75 241,60.25 242.75,67.75" fill="none" stroke="#6B7280" stroke-width="1"/>
<polyline points="239.95,64.75 242.05,64.75" fill="none" stroke="#6B7280" stroke-width="1"/>
<polyline points="244.25,67.75 244.25,60.25 247.75,60.25 247.75,63.75 244.25,63.75" fill="none" stroke="#6B7280" stroke-width="1"/>
<polyline points="245.9,63.75 247.75,67.75" fill="none" stroke="#6B7280" stroke-width="1"/>
<polyline points="252.75,60.25 249.25,60.25 249.25,63.75 252.75,63.75 252.75,67.75 249.25,67.75" fill="none" stroke="#6B7280" stroke-width="1"/>
<polyline points="203.75,84.25 200.25,84.25 200.25,91.75 203.75,91.75" fill="none" stroke="#6B7280" stroke-width="1"/>
<polyline points="205.25,84.25 208.75,84.25 208.75,91.75 205.25,91.75 205.25,84.25" fill="none" stroke="#6B7280" stroke-width="1"/>
<polyline points="210.25,91.75 210.25,84.25 212,88.25 213.75,84.25 213.75,91.75" fill="none" stroke="#6B7280" stroke-width="1"/>
<polyline points="215.25,91.75 215.25,84.25 217,88.25 218.75,84.25 218.75,91.75" fill="none" stroke="#6B7280" stroke-width="1"/>
<polyline points="220.25,91.75 222,84.25 223.75,91.75" fill="none" stroke="#6B7280" stroke-width="1"/>
<polyline points="220.95,88.75 223.05,88.75" fill="none" stroke="#6B7280" stroke-width="1"/>
<polyline points="225.25,91.75 225.25,84.25 228.75,91.75 228.75,84.25" fill="none" stroke="#6B7280" stroke-width="1"/>
<polyline points="230.25,91.75 230.25,84.25 232.25,84.25 233.75,85.75 233.75,90.25 232.25,91.75 230.25,91.75" fill="none" stroke="#6B7280" stroke-width="1"/>
<polyline points="239.25,84.25 239.25,91.75 242.75,91.75" fill="none" stroke="#6B7280" stroke-width="1"/>
<polyline points="244.25,84.25 247.75,84.25" fill="none" stroke="#6B7280" stroke-width="1"/>
<polyline points="246,84.25 246,91.75" fill="none" stroke="#6B7280" stroke-width="1"/>
<polyline points="244.25,91.75 247.75,91.75" fill="none" stroke="#6B7280" stroke-width="1"/>
<polyline points="249.25,91.75 249.25,84.25 252.75,91.75 252.75,84.25" fill="none" stroke="#6B7280" stroke-width="1"/>
<polyline points="257.75,84.25 254.25,84.25 254.25,91.75 257.75,91.75" fill="none" stroke="#6B7280" stroke-width="1"/>
<polyline points="254.25,88 257.25,88" fill="none" stroke="#6B7280" stroke-width="1"/>
<polyline points="203.75,108.25 200.25,108.25 200.25,115.75 203.75,115.75" fill="none" stroke="#6B7280" stroke-width="1"/>
<polyline points="205.25,108.25 205.25,115.75 208.75,115.75 208.75,108.25" fill="none" stroke="#6B7280" stroke-width="1"/>
<polyline points="210.25,115.75 210.25,108.25 213.75,108.25 213.75,111.75 210.25,111.75" fill="none" stroke="#6B7280" stroke-width="1"/>
<polyline points="211.9,111.75 213.75,115.75" fill="none" stroke="#6B7280" stroke-width="1"/>
<polyline points="218.75,108.25 215.25,108.25 215.25,111.75 218.75,111.75 218.75,115.75 215.25,115.75" fill="none" stroke="#6B7280" stroke-width="1"/>
<polyline points="220.25,108.25 223.75,108.25 223.75,115.75 220.25,115.75 220.25,108.25" fill="none" stroke="#6B7280" stroke-width="1"/>
<polyline points="225.25,115.75 225.25,108.25 228.75,108.25 228.75,111.75 225.25,111.75" fill="none" stroke="#6B7280" stroke-width="1"/>
<polyline points="226.9,111.75 228.75,115.75" fill="none" stroke="#6B7280" stroke-width="1"/>
<polyline points="200.25,132.25 200.25,139.75" fill="none" stroke="#6B7280" stroke-width="1"/>
<polyline points="203.75,132.25 203.75,139.75" fill="none" stroke="#6B7280" stroke-width="1"/>
<polyline points="200.25,136 203.75,136" fill="none" stroke="#6B7280" stroke-width="1"/>
<polyline points="205.25,139.75 207,132.25 208.75,139.75" fill="none" stroke="#6B7280" stroke-width="1"/>
<polyline points="205.95,136.75 208.05,136.75" fill="none" stroke="#6B7280" stroke-width="1"/>
<polyline points="210.25,132.25 213.75,132.25" fill="none" stroke="#6B7280" stroke-width="1"/>
<polyline points="212,132.25 212,139.75" fill="none" stroke="#6B7280" stroke-width="1"/>
<polyline points="210.25,139.75 213.75,139.75" fill="none" stroke="#6B7280" stroke-width="1"/>
<polyline points="215.25,139.75 215.25,132.25 218.75,132.25 218.75,135.75 215.25,135.75" fill="none" stroke="#6B7280" stroke-width="1"/>
<polyline points="216.9,135.75 218.75,139.75" fill="none" stroke="#6B7280" stroke-width="1"/>
<polyline points="220.25,132.25 220.25,139.75 223.75,139.75" fill="none" stroke="#6B7280" stroke-width="1"/>
<polyline points="225.25,132.25 228.75,132.25" fill="none" stroke="#6B7280" stroke-width="1"/>
<polyline points="227,132.25 227,139.75" fill="none" stroke="#6B7280" stroke-width="1"/>
<polyline points="225.25,139.75 228.75,139.75" fill="none" stroke="#6B7280" stroke-width="1"/>
<polyline points="230.25,139.75 230.25,132.25 233.75,139.75 233.75,132.25" fill="none" stroke="#6B7280" stroke-width="1"/>
<polyline points="238.75,132.25 235.25,132.25 235.25,139.75 238.75,139.75" fill="none" stroke="#6B7280" stroke-width="1"/>
<polyline points="235.25,136 238.25,136" fill="none" stroke="#6B7280" stroke-width="1"/>
<polyline points="244.75,133.5 246,132.25 246,139.75" fill="none" stroke="#6B7280" stroke-width="1"/>
<polyline points="244.25,139.75 247.75,139.75" fill="none" stroke="#6B7280" stroke-width="1"/>
<polyline points="249.25,132.25 249.25,139.75 252.75,139.75 252.75,132.25" fill="none" stroke="#6B7280" stroke-width="1"/>
<polyline points="200.75,151.5 202,150.25 202,157.75" fill="none" stroke="#6B7280" stroke-width="1"/>
<polyline points="200.25,157.75 203.75,157.75" fill="none" stroke="#6B7280" stroke-width="1"/>
<polyline points="205.25,150.25 208.75,150.25 208.75,153.75 205.25,153.75 205.25,157.75 208.75,157.75" fill="none" stroke="#6B7280" stroke-width="1"/>
<polyline points="210.25,150.25 210.25,157.75 213.75,157.75 213.75,150.25" fill="none" stroke="#6B7280" stroke-width="1"/>
<polyline points="222.75,150.25 219.25,150.25 219.25,157.75 222.75,157.75 222.75,154.25 221,154.25" fill="none" stroke="#6B7280" stroke-width="1"/>
<polyline points="224.25,157.75 226,150.25 227.75,157.75" fill="none" stroke="#6B7280" stroke-width="1"/>
<polyline points="224.95,154.75 227.05,154.75" fill="none" stroke="#6B7280" stroke-width="1"/>
<polyline points="229.25,157.75 229.25,150.25 232.75,150.25 232.75,153.75 229.25,153.75" fill="none" stroke="#6B7280" stroke-width="1"/>
<polyline points="238.25,150.25 241.75,150.25" fill="none" stroke="#6B7280" stroke-width="1"/>
<polyline points="240,150.25 240,157.75" fill="none" stroke="#6B7280" stroke-width="1"/>
<polyline points="246.75,150.25 243.25,150.25 243.25,157.75 246.75,157.75" fill="none" stroke="#6B7280" stroke-width="1"/>
<polyline points="243.25,154 246.25,154" fill="none" stroke="#6B7280" stroke-width="1"/>
<polyline points="248.25,150.25 251.75,157.75" fill="none" stroke="#6B7280" stroke-width="1"/>
<polyline points="251.75,150.25 248.25,157.75" fill="none" stroke="#6B7280" stroke-width="1"/>
<polyline points="253.25,150.25 256.75,150.25" fill="none" stroke="#6B7280" stroke-width="1"/>
<polyline points="255,150.25 255,157.75" fill="none" stroke="#6B7280" stroke-width="1"/>
<polyline points="176,36 196,36" fill="none" stroke="#1A2228" stroke-width="1"/>
<polyline points="176,60 196,60" fill="none" stroke="#1A2228" stroke-width="1"/>
<polyline points="176,84 196,84" fill="none" stroke="#1A2228" stroke-width="1"/>
<polyline points="176,108 196,108" fill="none" stroke="#1A2228" stroke-width="1"/>
</svg>
