<svg xmlns="http://www.w3.org/2000/svg" viewBox="0 0 240 64" width="240" height="64">
<title>lockup-support</title>
<rect x="0" y="0" width="240" height="64" fill="#0A0B0D"/>
<g data-text="SUPPORT COMMAND">
<rect x="8" y="44" width="8" height="8" fill="#34D399"/>
<rect x="20" y="36" width="8" height="16" fill="#34D399"/>
<rect x="32" y="28" width="8" height="24" fill="#34D399"/>
<rect x="8" y="52" width="48" height="2" fill="#34D399"/>
<rect x="52" y="44" width="4" height="8" fill="#34D399"/>
<rect x="8.5" y="5.5" width="22" height="6" fill="none" stroke="#34D399" stroke-width="1"/>
<rect x="8.5" y="13.5" width="22" height="6" fill="none" stroke="#34D399" stroke-width="1"/>
<polyline points="38,13 45,20 56,6" fill="none" stroke="#34D399" stroke-width="1"/>
<polyline points="83.5,24.5 76.5,24.5 76.5,31.5 83.5,31.5 83.5,39.5 76.5,39.5" fill="none" stroke="#34D399" stroke-width="1"/>
<polyline points="86.5,24.5 86.5,39.5 93.5,39.5 93.5,24.5" fill="none" stroke="#34D399" stroke-width="1"/>
<polyline points="96.5,39.5 96.5,24.5 103.5,24.5 103.5,31.5 96.5,31.5" fill="none" stroke="#34D399" stroke-width="1"/>
<polyline points="106.5,39.5 106.5,24.5 113.5,24.5 113.5,31.5 106.5,31.5" fill="none" stroke="#34D399" stroke-width="1"/>
<polyline points="116.5,24.5 123.5,24.5 123.5,39.5 116.5,39.5 116.5,24.5" fill="none" stroke="#34D399" stroke-width="1"/>
<polyline points="126.5,39.5 126.5,24.5 133.5,24.5 133.5,31.5 126.5,31.5" fill="none" stroke="#34D399" stroke-width="1"/>
<polyline points="129.8,31.5 133.5,39.5" fill="none" stroke="#34D399" stroke-width="1"/>
<polyline points="136.5,24.5 143.5,24.5" fill="none" stroke="#34D399" stroke-width="1"/>
<polyline points="140,24.5 140,39.5" fill="none" stroke="#34D399" stroke-width="1"/>
<polyline points="161.5,24.5 154.5,24.5 154.5,39.5 161.5,39.5" fill="none" stroke="#34D399" stroke-width="1"/>
<polyline points="164.5,24.5 171.5,24.5 171.5,39.5 164.5,39.5 164.5,24.5" fill="none" stroke="#34D399" stroke-width="1"/>
<polyline points="174.5,39.5 174.5,24.5 178,32.5 181.5,24.5 181.5,39.5" fill="none" stroke="#34D399" stroke-width="1"/>
<polyline points="184.5,39.5 184.5,24.5 188,32.5 191.5,24.5 191.5,39.5" fill="none" stroke="#34D399" stroke-width="1"/>
<polyline points="194.5,39.5 198,24.5 201.5,39.5" fill="none" stroke="#34D399" stroke-width="1"/>
<polyline points="195.9,33.5 200.1,33.5" fill="none" stroke="#34D399" stroke-width="1"/>
<polyline points="204.5,39.5 204.5,24.5 211.5,39.5 211.5,24.5" fill="none" stroke="#34D399" stroke-width="1"/>
<polyline points="214.5,39.5 214.5,24.5 218.5,24.5 221.5,27.5 221.5,36.5 218.5,39.5 214.5,39.5" fill="none" stroke="#34D399" stroke-width="1"/>
</g>
</svg>
