<svg xmlns="http://www.w3.org/2000/svg" viewBox="0 0 240 64" width="240" height="64">
<title>lockup-finance</title>
<rect x="0" y="0" width="240" height="64" fill="#0A0B0D"/>
<g data-text="FINANCE COMMAND">
<rect x="8" y="44" width="8" height="8" fill="#F5C842"/>
<rect x="20" y="36" width="8" height="16" fill="#F5C842"/>
<rect x="32" y="28" width="8" height="24" fill="#F5C842"/>
<rect x="8" y="52" width="48" height="2" fill="#F5C842"/>
<rect x="52" y="44" width="4" height="8" fill="#F5C842"/>
<rect x="8" y="14" width="5" height="8" fill="#F5C842"/>
<rect x="17" y="10" width="5" height="12" fill="#F5C842"/>
<rect x="26" y="12" width="5" height="10" fill="#F5C842"/>
<rect x="35" y="6" width="5" height="16" fill="#F5C842"/>
<polyline points="6,12.5 58,12.5" fill="none" stroke="#F5C842" stroke-width="1" stroke-dasharray="3 2"/>
<polyline points="83.5,24.5 76.5,24.5 76.5,39.5" fill="none" stroke="#F5C842" stroke-width="1"/>
<polyline points="76.5,32 82.5,32" fill="none" stroke="#F5C842" stroke-width="1"/>
<polyline points="86.5,24.5 93.5,24.5" fill="none" stroke="#F5C842" stroke-width="1"/>
<polyline points="90,24.5 90,39.5" fill="none" stroke="#F5C842" stroke-width="1"/>
<polyline points="86.5,39.5 93.5,39.5" fill="none" stroke="#F5C842" stroke-width="1"/>
<polyline points="96.5,39.5 96.5,24.5 103.5,39.5 103.5,24.5" fill="none" stroke="#F5C842" stroke-width="1"/>
<polyline points="106.5,39.5 110,24.5 113.5,39.5" fill="none" stroke="#F5C842" stroke-width="1"/>
<polyline points="107.9,33.5 112.1,33.5" fill="none" stroke="#F5C842" stroke-width="1"/>
<polyline points="116.5,39.5 116.5,24.5 123.5,39.5 123.5,24.5" fill="none" stroke="#F5C842" stroke-width="1"/>
<polyline points="133.5,24.5 126.5,24.5 126.5,39.5 133.5,39.5" fill="none" stroke="#F5C842" stroke-width="1"/>
<polyline points="143.5,24.5 136.5,24.5 136.5,39.5 143.5,39.5" fill="none" stroke="#F5C842" stroke-width="1"/>
<polyline points="136.5,32 142.5,32" fill="none" stroke="#F5C842" stroke-width="1"/>
<polyline points="161.5,24.5 154.5,24.5 154.5,39.5 161.5,39.5" fill="none" stroke="#F5C842" stroke-width="1"/>
<polyline points="164.5,24.5 171.5,24.5 171.5,39.5 164.5,39.5 164.5,24.5" fill="none" stroke="#F5C842" stroke-width="1"/>
<polyline points="174.5,39.5 174.5,24.5 178,32.5 181.5,24.5 181.5,39.5" fill="none" stroke="#F5C842" stroke-width="1"/>
<polyline points="184.5,39.5 184.5,24.5 188,32.5 191.5,24.5 191.5,39.5" fill="none" stroke="#F5C842" stroke-width="1"/>
<polyline points="194.5,39.5 198,24.5 201.5,39.5" fill="none" stroke="#F5C842" stroke-width="1"/>
<polyline points="195.9,33.5 200.1,33.5" fill="none" stroke="#F5C842" stroke-width="1"/>
<polyline points="204.5,39.5 204.5,24.5 211.5,39.5 211.5,24.5" fill="none" stroke="#F5C842" stroke-width="1"/>
<polyline points="214.5,39.5 214.5,24.5 218.5,24.5 221.5,27.5 221.5,36.5 218.5,39.5 214.5,39.5" fill="none" stroke="#F5C842" stroke-width="1"/>
</g>
</svg>
